<?xml version="1.0" encoding="UTF-8" standalone="no"?><!DOCTYPE svg PUBLIC "-//W3C//DTD SVG 1.1//EN" "http://www.w3.org/Graphics/SVG/1.1/DTD/svg11.dtd"><svg width="100%" height="100%" viewBox="0 0 1024 640" version="1.1" xmlns="http://www.w3.org/2000/svg" xmlns:xlink="http://www.w3.org/1999/xlink" xml:space="preserve" xmlns:serif="http://www.serif.com/" style="fill-rule:evenodd;clip-rule:evenodd;stroke-linejoin:round;stroke-miterlimit:1.41421;"><rect x="0" y="0" width="1024" height="640" style="fill:url(#_Radial1);"/><g><path d="M528.924,86.273c0,0 5.656,-24.506 0.472,-38.172c-5.184,-13.666 -21.207,-17.436 -38.643,-14.609c-17.436,2.828 -32.572,9.537 -32.045,24.977c0.356,10.425 4.712,65.033 6.126,72.573c1.414,7.54 12.253,8.953 12.253,8.953c0,0 -10.368,-1.885 -12.253,6.598c-1.885,8.483 -11.31,18.379 -1.885,25.919c9.425,7.54 43.355,7.54 46.654,0.471c3.299,-7.069 4.241,-9.425 4.241,-9.425c0,0 0.943,19.321 5.184,26.862c4.241,7.54 23.092,13.195 31.103,12.723c8.011,-0.471 11.31,-13.195 16.494,-25.447c5.183,-12.253 11.31,-40.999 11.31,-49.482c0,-8.482 -0.943,-22.149 -7.069,-28.275c-6.126,-6.126 -17.436,-15.551 -41.942,-13.666Z" style="fill:#382129;"/><path d="M461.523,51.72c0,0 14.829,-12.77 29.909,-15.409c15.08,-2.639 27.782,3.821 31.282,7.492c4.161,4.364 -24.796,40.198 -40.069,40.89c-8.744,0.354 -22.731,-24.324 -21.122,-32.973Z" style="fill:#4d2c28;"/><path d="M543.961,89.973c-9.235,-1.699 -14.138,5.184 -11.31,17.437c2.827,12.252 11.781,27.804 12.724,40.056c0.942,12.253 9.896,26.862 15.551,19.793c5.655,-7.069 11.31,-19.793 12.724,-26.862c1.413,-7.068 12.422,-42.676 -29.689,-50.424Z" style="fill:#4d2c28;"/><path d="M549.008,90.202c-2.772,-0.693 -2.426,0.347 0.692,1.733c3.119,1.385 19.402,12.298 21.48,16.629c2.079,4.331 3.984,23.732 3.465,27.023c-0.52,3.291 2.252,-5.37 2.252,-8.488c0,-3.118 -1.386,-16.803 -3.638,-20.787c-2.252,-3.984 -15.071,-14.031 -24.251,-16.11" style="fill:#7e5942;"/><path d="M526.675,96.276c0,0 -3.5,36.05 -10,41.057c-6.499,5.007 -32.498,8.011 -39.497,1.001c-7,-7.009 8.499,-11.015 15.499,-12.016c6.999,-1.002 17.999,-8.011 20.999,-15.021c2.999,-7.01 11.499,-19.527 12.999,-15.021Z" style="fill:#331b23;"/><path d="M516.702,155.44c0,0 1.131,-23.751 3.016,-18.85c1.885,4.901 1.131,30.16 7.163,38.454c6.032,8.294 15.08,13.949 22.62,13.949c7.54,0 9.707,7.917 4.052,10.556c-5.655,2.639 -24.033,1.131 -31.196,-8.294c-7.163,-15.08 -5.655,-35.815 -5.655,-35.815" style="fill:#331b23;"/></g><g><path d="M577.446,250.978c0,0 7.961,-17.369 12.303,-23.159c4.342,-5.789 23.882,-9.408 31.481,-6.151c7.599,3.257 10.856,5.428 13.751,11.217c2.895,5.79 0,39.805 -0.362,48.851c-0.362,9.046 -1.809,24.968 -6.152,32.929c-4.342,7.961 -18.092,30.758 -21.349,37.995c-3.257,7.237 -8.323,22.435 -14.474,20.264c-6.152,-2.172 -14.836,-6.876 -14.836,-6.876c0,0 1.447,38.357 -1.448,44.147c-2.895,5.789 -6.875,14.474 -14.112,15.921c-7.237,1.448 -24.606,2.533 -24.606,2.533c0,0 -23.883,-36.909 -24.968,-43.06c-1.086,-6.152 -2.895,-53.555 -1.448,-58.983c1.448,-5.428 18.455,-19.902 18.455,-19.902l-6.514,-6.513c0,0 -2.894,-48.489 -2.171,-55.002c0.724,-6.514 26.416,-20.988 26.416,-20.988c6.896,-0.317 13.876,2.367 20.987,9.77l9.047,17.007Z" style="fill:#382129;"/><path d="M570.564,331.601c0,0 7.833,25.909 7.833,31.332c4.217,2.109 11.749,7.23 12.954,3.013c1.205,-4.218 1.506,-34.044 1.506,-40.069c0,-6.025 -2.109,-6.327 -6.326,-2.711c-4.218,3.615 -15.967,8.435 -15.967,8.435Z" style="fill:#331b23;"/><path d="M564.457,258.138c2.41,-2.893 7.712,-4.58 7.23,-0.724c-0.482,3.857 -12.05,22.897 -15.184,27.958c-3.133,5.061 -7.471,14.702 -11.568,16.389c-4.098,1.687 -10.846,4.338 -13.015,2.892c-2.169,-1.446 -5.061,-13.015 -5.061,-13.015c0,0 6.266,-0.482 11.327,-1.928c5.062,-1.446 10.605,-11.086 13.497,-13.737c2.892,-2.652 10.364,-14.943 12.774,-17.835Z" style="fill:#331b23;"/><path d="M592.282,229.991c0,0 8.323,-7.238 18.455,-6.514c10.131,0.724 20.625,6.514 21.349,12.665c0.724,6.152 0.724,26.416 -1.809,35.824c-2.533,9.408 -23.521,28.948 -32.567,35.1c-9.047,6.151 -25.692,24.244 -31.12,20.987c-5.428,-3.256 -14.836,-15.197 -11.941,-23.882c2.895,-8.685 12.665,-30.396 17.007,-35.462c4.342,-5.066 14.836,-31.119 20.626,-38.718Z" style="fill:#4d2c28;"/><path d="M568.038,237.951c0,0 -13.027,-12.665 -19.541,-9.408c-6.513,3.257 -24.606,17.731 -24.606,17.731c0,0 0.362,23.883 2.533,29.672c2.171,5.79 11.941,15.56 16.284,7.237c4.342,-8.322 21.349,-29.31 21.349,-29.31c0,0 4.342,-9.408 3.981,-15.922Z" style="fill:#4d2c28;"/><path d="M517.016,322.987c0,0 17.007,-13.388 23.159,-13.388c6.151,0 15.198,10.494 17.007,17.007c1.809,6.513 0,15.922 0,23.883c0,7.96 -5.79,33.29 -16.645,40.165c-10.856,6.876 -21.35,6.514 -24.245,-4.342c-2.171,-16.645 -3.257,-52.831 -3.257,-52.831c0,0 -2.171,-5.066 3.981,-10.494Z" style="fill:#4d2c28;"/><path d="M528.518,314.443c3.897,-2.598 7.145,-1.515 3.031,1.516c-4.114,3.031 -11.259,8.445 -12.559,12.775c-1.299,4.331 -2.381,36.81 -2.381,41.141c0,4.33 -1.083,-2.165 -2.166,-11.476c-1.082,-9.311 -3.681,-26.85 -1.515,-30.314c2.165,-3.465 11.692,-11.043 15.59,-13.642Z" style="fill:#7e5942;"/></g><g><path d="M420.757,155.81c0,0 10.343,-22.567 15.984,-30.089c5.642,-7.522 31.03,-12.224 40.903,-7.992c9.873,4.231 14.104,7.052 17.865,14.574c3.761,7.522 0,51.715 -0.47,63.469c-0.47,11.754 -2.351,32.44 -7.992,42.783c-5.642,10.343 -23.508,39.962 -27.739,49.365c-4.231,9.402 -10.813,29.148 -18.805,26.328c-7.993,-2.821 -19.276,-8.933 -19.276,-8.933c0,0 1.88,49.835 -1.881,57.357c-3.761,7.522 -8.933,18.806 -18.335,20.686c-9.403,1.881 -31.97,3.291 -31.97,3.291c0,0 -31.029,-47.954 -32.44,-55.946c-1.41,-7.993 -3.761,-69.581 -1.88,-76.633c1.88,-7.053 23.977,-25.858 23.977,-25.858l-8.463,-8.463c0,0 -3.761,-62.999 -2.82,-71.461c0.94,-8.463 34.32,-27.268 34.32,-27.268c8.96,-0.412 18.029,3.075 27.268,12.693l11.754,22.097Z" style="fill:#382129;"/><path d="M411.815,260.559c0,0 10.177,33.663 10.177,40.708c5.48,2.74 15.265,9.394 16.831,3.915c1.566,-5.48 1.957,-44.231 1.957,-52.06c0,-7.828 -2.74,-8.219 -8.22,-3.522c-5.48,4.697 -20.745,10.959 -20.745,10.959Z" style="fill:#331b23;"/><path d="M403.881,165.112c3.131,-3.758 10.02,-5.95 9.394,-0.94c-0.627,5.011 -15.657,29.748 -19.728,36.324c-4.071,6.576 -9.707,19.102 -15.031,21.294c-5.323,2.192 -14.091,5.636 -16.909,3.757c-2.818,-1.879 -6.576,-16.909 -6.576,-16.909c0,0 8.142,-0.626 14.718,-2.505c6.576,-1.879 13.778,-14.405 17.535,-17.849c3.758,-3.445 13.465,-19.415 16.597,-23.172Z" style="fill:#331b23;"/><path d="M440.032,128.542c0,0 10.814,-9.403 23.978,-8.463c13.164,0.941 26.798,8.463 27.738,16.455c0.94,7.993 0.94,34.321 -2.351,46.544c-3.291,12.224 -30.559,37.611 -42.312,45.604c-11.754,7.992 -33.381,31.499 -40.433,27.268c-7.052,-4.231 -19.275,-19.746 -15.514,-31.029c3.761,-11.284 16.455,-39.492 22.096,-46.074c5.642,-6.582 19.276,-40.432 26.798,-50.305Z" style="fill:#4d2c28;"/><path d="M408.533,138.885c0,0 -16.925,-16.455 -25.388,-12.224c-8.462,4.231 -31.969,23.037 -31.969,23.037c0,0 0.47,31.029 3.291,38.552c2.821,7.522 15.514,20.216 21.156,9.403c5.642,-10.814 27.738,-38.082 27.738,-38.082c0,0 5.642,-12.224 5.172,-20.686Z" style="fill:#4d2c28;"/><path d="M342.243,249.368c0,0 22.097,-17.395 30.089,-17.395c7.992,0 19.746,13.634 22.097,22.097c2.35,8.462 0,20.686 0,31.029c0,10.343 -7.523,43.253 -21.627,52.186c-14.104,8.932 -27.738,8.462 -31.499,-5.642c-2.821,-21.627 -4.232,-68.641 -4.232,-68.641c0,0 -2.82,-6.582 5.172,-13.634Z" style="fill:#4d2c28;"/><path d="M357.187,238.267c5.064,-3.376 9.283,-1.969 3.938,1.969c-5.345,3.939 -14.629,10.972 -16.317,16.598c-1.688,5.627 -3.094,47.826 -3.094,53.452c0,5.627 -1.407,-2.813 -2.813,-14.91c-1.407,-12.097 -4.783,-34.884 -1.97,-39.385c2.813,-4.502 15.192,-14.348 20.256,-17.724Z" style="fill:#7e5942;"/></g><g><path d="M258.09,239.81c0,0 10.343,-22.567 15.985,-30.089c5.641,-7.522 31.029,-12.224 40.902,-7.992c9.873,4.231 14.104,7.052 17.865,14.574c3.762,7.522 0,51.715 -0.47,63.469c-0.47,11.754 -2.35,32.44 -7.992,42.783c-5.642,10.343 -23.507,39.962 -27.738,49.365c-4.232,9.402 -10.814,29.148 -18.806,26.328c-7.993,-2.821 -19.276,-8.933 -19.276,-8.933c0,0 1.881,49.835 -1.88,57.357c-3.762,7.522 -8.933,18.806 -18.336,20.686c-9.403,1.881 -31.97,3.291 -31.97,3.291c0,0 -31.029,-47.954 -32.439,-55.946c-1.411,-7.993 -3.761,-69.581 -1.881,-76.634c1.881,-7.052 23.977,-25.857 23.977,-25.857l-8.462,-8.463c0,0 -3.761,-62.999 -2.821,-71.461c0.94,-8.463 34.32,-27.268 34.32,-27.268c8.96,-0.412 18.029,3.075 27.268,12.693l11.754,22.097Z" style="fill:#382129;"/><path d="M249.148,344.559c0,0 10.177,33.663 10.177,40.708c5.48,2.74 15.266,9.394 16.831,3.915c1.566,-5.48 1.957,-44.231 1.957,-52.06c0,-7.828 -2.74,-8.219 -8.219,-3.522c-5.48,4.697 -20.746,10.959 -20.746,10.959Z" style="fill:#331b23;"/><path d="M241.214,249.112c3.131,-3.758 10.02,-5.95 9.394,-0.94c-0.626,5.011 -15.657,29.748 -19.728,36.324c-4.07,6.576 -9.707,19.102 -15.03,21.294c-5.323,2.192 -14.091,5.636 -16.91,3.757c-2.818,-1.879 -6.575,-16.909 -6.575,-16.909c0,0 8.141,-0.626 14.717,-2.505c6.576,-1.879 13.778,-14.405 17.536,-17.849c3.757,-3.445 13.465,-19.415 16.596,-23.172Z" style="fill:#331b23;"/><path d="M277.366,212.542c0,0 10.813,-9.403 23.977,-8.463c13.164,0.941 26.798,8.463 27.738,16.455c0.941,7.993 0.941,34.32 -2.35,46.544c-3.291,12.224 -30.56,37.611 -42.313,45.604c-11.754,7.992 -33.38,31.499 -40.432,27.268c-7.052,-4.231 -19.276,-19.746 -15.515,-31.029c3.761,-11.284 16.455,-39.492 22.097,-46.074c5.641,-6.582 19.275,-40.432 26.798,-50.305Z" style="fill:#4d2c28;"/><path d="M245.866,222.885c0,0 -16.925,-16.455 -25.387,-12.224c-8.463,4.231 -31.97,23.037 -31.97,23.037c0,0 0.47,31.029 3.291,38.552c2.821,7.522 15.515,20.216 21.156,9.403c5.642,-10.814 27.739,-38.082 27.739,-38.082c0,0 5.641,-12.224 5.171,-20.686Z" style="fill:#4d2c28;"/><path d="M179.576,333.368c0,0 22.097,-17.395 30.089,-17.395c7.993,0 19.746,13.634 22.097,22.096c2.351,8.463 0,20.687 0,31.03c0,10.343 -7.522,43.253 -21.626,52.185c-14.105,8.933 -27.739,8.463 -31.5,-5.641c-2.821,-21.627 -4.231,-68.641 -4.231,-68.641c0,0 -2.821,-6.582 5.171,-13.634Z" style="fill:#4d2c28;"/><path d="M194.52,322.267c5.064,-3.376 9.284,-1.969 3.939,1.969c-5.346,3.939 -14.629,10.972 -16.317,16.598c-1.688,5.627 -3.095,47.826 -3.095,53.452c0,5.627 -1.407,-2.813 -2.813,-14.91c-1.407,-12.097 -4.783,-34.884 -1.969,-39.385c2.813,-4.502 15.191,-14.348 20.255,-17.724Z" style="fill:#7e5942;"/></g><g><path d="M714.09,385.81c0,0 10.343,-22.567 15.985,-30.089c5.641,-7.522 31.029,-12.224 40.902,-7.992c9.873,4.231 14.104,7.052 17.865,14.574c3.762,7.522 0,51.715 -0.47,63.469c-0.47,11.754 -2.35,32.44 -7.992,42.783c-5.642,10.343 -23.507,39.962 -27.738,49.365c-4.232,9.402 -10.814,29.148 -18.806,26.328c-7.993,-2.821 -19.276,-8.933 -19.276,-8.933c0,0 1.881,49.835 -1.88,57.357c-3.762,7.522 -8.933,18.806 -18.336,20.686c-9.403,1.881 -31.97,3.291 -31.97,3.291c0,0 -31.029,-47.954 -32.439,-55.946c-1.411,-7.993 -3.761,-69.581 -1.881,-76.634c1.881,-7.052 23.977,-25.857 23.977,-25.857l-8.462,-8.463c0,0 -3.761,-62.999 -2.821,-71.461c0.94,-8.463 34.32,-27.268 34.32,-27.268c8.96,-0.412 18.029,3.075 27.268,12.693l11.754,22.097Z" style="fill:#382129;"/><path d="M705.148,490.559c0,0 10.177,33.663 10.177,40.708c5.48,2.74 15.266,9.394 16.831,3.915c1.566,-5.48 1.957,-44.231 1.957,-52.06c0,-7.828 -2.74,-8.219 -8.219,-3.522c-5.48,4.697 -20.746,10.959 -20.746,10.959Z" style="fill:#331b23;"/><path d="M697.214,395.112c3.131,-3.758 10.02,-5.95 9.394,-0.94c-0.626,5.011 -15.657,29.748 -19.728,36.324c-4.07,6.576 -9.707,19.102 -15.03,21.294c-5.324,2.192 -14.091,5.636 -16.91,3.757c-2.818,-1.879 -6.575,-16.909 -6.575,-16.909c0,0 8.141,-0.626 14.717,-2.505c6.576,-1.879 13.778,-14.405 17.536,-17.849c3.757,-3.445 13.465,-19.415 16.596,-23.172Z" style="fill:#331b23;"/><path d="M733.366,358.542c0,0 10.813,-9.403 23.977,-8.463c13.164,0.941 26.798,8.463 27.738,16.455c0.941,7.993 0.941,34.32 -2.35,46.544c-3.291,12.224 -30.56,37.611 -42.313,45.604c-11.754,7.992 -33.38,31.499 -40.432,27.268c-7.052,-4.231 -19.276,-19.746 -15.515,-31.029c3.761,-11.284 16.455,-39.492 22.097,-46.074c5.641,-6.582 19.275,-40.432 26.798,-50.305Z" style="fill:#4d2c28;"/><path d="M701.866,368.885c0,0 -16.925,-16.455 -25.387,-12.224c-8.463,4.231 -31.97,23.037 -31.97,23.037c0,0 0.47,31.029 3.291,38.552c2.821,7.522 15.515,20.216 21.156,9.403c5.642,-10.814 27.739,-38.082 27.739,-38.082c0,0 5.641,-12.224 5.171,-20.686Z" style="fill:#4d2c28;"/><path d="M635.576,479.368c0,0 22.097,-17.395 30.089,-17.395c7.993,0 19.746,13.634 22.097,22.096c2.351,8.463 0,20.687 0,31.03c0,10.343 -7.522,43.253 -21.626,52.185c-14.105,8.933 -27.739,8.463 -31.5,-5.641c-2.821,-21.627 -4.231,-68.641 -4.231,-68.641c0,0 -2.821,-6.582 5.171,-13.634Z" style="fill:#4d2c28;"/><path d="M650.52,468.267c5.064,-3.376 9.284,-1.969 3.939,1.969c-5.346,3.939 -14.629,10.972 -16.317,16.598c-1.688,5.627 -3.095,47.826 -3.095,53.452c0,5.627 -1.407,-2.813 -2.813,-14.91c-1.407,-12.097 -4.783,-34.884 -1.969,-39.385c2.813,-4.502 15.191,-14.348 20.255,-17.724Z" style="fill:#7e5942;"/></g><g><path d="M875.423,63.81c0,0 10.343,-22.567 15.985,-30.089c5.642,-7.522 31.029,-12.224 40.902,-7.992c9.873,4.231 14.105,7.052 17.866,14.574c3.761,7.522 0,51.715 -0.47,63.469c-0.471,11.754 -2.351,32.44 -7.993,42.783c-5.642,10.343 -23.507,39.962 -27.738,49.365c-4.231,9.403 -10.813,29.148 -18.806,26.328c-7.992,-2.821 -19.276,-8.933 -19.276,-8.933c0,0 1.881,49.835 -1.88,57.357c-3.761,7.522 -8.933,18.806 -18.336,20.686c-9.403,1.881 -31.969,3.291 -31.969,3.291c0,0 -31.03,-47.954 -32.44,-55.946c-1.41,-7.993 -3.761,-69.581 -1.881,-76.633c1.881,-7.053 23.978,-25.858 23.978,-25.858l-8.463,-8.463c0,0 -3.761,-62.999 -2.821,-71.461c0.94,-8.463 34.321,-27.268 34.321,-27.268c8.96,-0.412 18.028,3.075 27.268,12.693l11.753,22.097Z" style="fill:#382129;"/><path d="M866.481,168.559c0,0 10.177,33.663 10.177,40.708c5.48,2.74 15.266,9.394 16.832,3.915c1.565,-5.48 1.957,-44.231 1.957,-52.06c0,-7.828 -2.74,-8.219 -8.22,-3.522c-5.48,4.697 -20.746,10.959 -20.746,10.959Z" style="fill:#331b23;"/><path d="M858.547,73.112c3.132,-3.758 10.021,-5.95 9.394,-0.94c-0.626,5.011 -15.656,29.748 -19.727,36.324c-4.071,6.576 -9.708,19.102 -15.031,21.294c-5.323,2.192 -14.091,5.636 -16.909,3.757c-2.819,-1.879 -6.576,-16.909 -6.576,-16.909c0,0 8.141,-0.626 14.717,-2.505c6.576,-1.879 13.778,-14.405 17.536,-17.849c3.758,-3.445 13.465,-19.415 16.596,-23.172Z" style="fill:#331b23;"/><path d="M894.699,36.542c0,0 10.813,-9.403 23.977,-8.463c13.164,0.941 26.798,8.463 27.739,16.455c0.94,7.993 0.94,34.321 -2.351,46.544c-3.291,12.224 -30.559,37.611 -42.313,45.604c-11.753,7.992 -33.38,31.499 -40.432,27.268c-7.052,-4.231 -19.276,-19.746 -15.515,-31.029c3.761,-11.284 16.455,-39.492 22.097,-46.074c5.642,-6.582 19.276,-40.432 26.798,-50.305Z" style="fill:#4d2c28;"/><path d="M863.2,46.885c0,0 -16.926,-16.455 -25.388,-12.224c-8.463,4.231 -31.97,23.037 -31.97,23.037c0,0 0.47,31.029 3.291,38.552c2.821,7.522 15.515,20.216 21.157,9.403c5.641,-10.814 27.738,-38.082 27.738,-38.082c0,0 5.642,-12.224 5.172,-20.686Z" style="fill:#4d2c28;"/><path d="M796.91,157.368c0,0 22.096,-17.395 30.089,-17.395c7.992,0 19.746,13.634 22.096,22.097c2.351,8.462 0,20.686 0,31.029c0,10.343 -7.522,43.253 -21.626,52.186c-14.104,8.932 -27.739,8.462 -31.5,-5.642c-2.82,-21.627 -4.231,-68.641 -4.231,-68.641c0,0 -2.821,-6.582 5.172,-13.634Z" style="fill:#4d2c28;"/><path d="M811.853,146.267c5.064,-3.376 9.284,-1.969 3.939,1.969c-5.345,3.939 -14.629,10.972 -16.317,16.598c-1.688,5.627 -3.095,47.826 -3.095,53.452c0,5.627 -1.406,-2.813 -2.813,-14.91c-1.406,-12.097 -4.782,-34.884 -1.969,-39.385c2.813,-4.502 15.191,-14.348 20.255,-17.724Z" style="fill:#7e5942;"/></g><g><path d="M554.251,436.799c0,0 8.103,-35.116 0.675,-54.7c-7.428,-19.584 -30.389,-24.986 -55.375,-20.935c-24.986,4.052 -46.676,13.667 -45.921,35.792c0.51,14.939 6.753,93.192 8.779,103.997c2.026,10.804 17.558,12.83 17.558,12.83c0,0 -14.857,-2.701 -17.558,9.455c-2.701,12.155 -16.207,26.336 -2.701,37.141c13.506,10.805 62.128,10.805 66.855,0.676c4.727,-10.13 6.078,-13.506 6.078,-13.506c0,0 1.351,27.687 7.428,38.492c6.078,10.805 33.09,18.908 44.57,18.233c11.481,-0.675 16.208,-18.908 23.636,-36.466c7.428,-17.558 16.207,-58.752 16.207,-70.907c0,-12.156 -1.35,-31.74 -10.129,-40.519c-8.779,-8.779 -24.987,-22.285 -60.102,-19.583Z" style="fill:#382129;"/><path d="M457.665,387.285c0,0 21.249,-18.299 42.859,-22.081c21.61,-3.782 39.811,5.475 44.827,10.736c5.962,6.253 -35.532,57.603 -57.419,58.595c-12.53,0.508 -32.574,-34.856 -30.267,-47.25Z" style="fill:#4d2c28;"/><path d="M575.798,442.102c-13.234,-2.435 -20.259,7.428 -16.208,24.986c4.052,17.558 16.883,39.843 18.234,57.401c1.35,17.558 14.181,38.492 22.285,28.363c8.103,-10.13 16.207,-28.363 18.233,-38.493c2.026,-10.129 17.801,-61.155 -42.544,-72.257Z" style="fill:#4d2c28;"/><path d="M583.03,442.43c-3.972,-0.993 -3.475,0.496 0.993,2.482c4.468,1.986 27.801,17.624 30.78,23.83c2.979,6.206 5.709,34.008 4.965,38.724c-0.745,4.716 3.227,-7.695 3.227,-12.163c0,-4.468 -1.986,-24.079 -5.213,-29.788c-3.227,-5.709 -21.596,-20.106 -34.752,-23.085" style="fill:#7e5942;"/><path d="M551.027,451.134c0,0 -5.015,51.659 -14.329,58.834c-9.314,7.175 -46.57,11.48 -56.6,1.435c-10.031,-10.045 12.179,-15.785 22.21,-17.22c10.03,-1.435 25.792,-11.48 30.091,-21.524c4.299,-10.045 16.478,-27.983 18.628,-21.525Z" style="fill:#331b23;"/><path d="M536.736,535.916c0,0 1.62,-34.036 4.321,-27.013c2.702,7.024 1.621,43.22 10.265,55.105c8.644,11.886 21.61,19.989 32.415,19.989c10.805,0 13.91,11.345 5.807,15.127c-8.104,3.782 -34.44,1.621 -44.705,-11.885c-10.264,-21.61 -8.103,-51.323 -8.103,-51.323" style="fill:#331b23;"/></g><g><path d="M900.917,404.799c0,0 8.104,-35.116 0.676,-54.7c-7.429,-19.584 -30.389,-24.986 -55.375,-20.935c-24.987,4.052 -46.677,13.667 -45.921,35.792c0.51,14.939 6.753,93.192 8.779,103.997c2.026,10.804 17.558,12.83 17.558,12.83c0,0 -14.857,-2.701 -17.558,9.455c-2.701,12.155 -16.207,26.336 -2.701,37.141c13.506,10.805 62.128,10.805 66.855,0.676c4.727,-10.13 6.078,-13.506 6.078,-13.506c0,0 1.35,27.687 7.428,38.492c6.078,10.805 33.09,18.908 44.57,18.233c11.48,-0.675 16.207,-18.908 23.636,-36.466c7.428,-17.558 16.207,-58.752 16.207,-70.907c0,-12.156 -1.351,-31.74 -10.13,-40.519c-8.779,-8.779 -24.986,-22.285 -60.102,-19.583Z" style="fill:#382129;"/><path d="M804.332,355.285c0,0 21.249,-18.299 42.859,-22.081c21.61,-3.782 39.811,5.475 44.826,10.736c5.963,6.253 -35.531,57.603 -57.418,58.595c-12.531,0.508 -32.574,-34.856 -30.267,-47.25Z" style="fill:#4d2c28;"/><path d="M922.464,410.102c-13.233,-2.435 -20.259,7.428 -16.207,24.986c4.052,17.558 16.883,39.843 18.233,57.401c1.351,17.558 14.182,38.492 22.285,28.363c8.104,-10.13 16.208,-28.363 18.233,-38.493c2.026,-10.129 17.802,-61.155 -42.544,-72.257Z" style="fill:#4d2c28;"/><path d="M929.696,410.43c-3.971,-0.993 -3.475,0.496 0.993,2.482c4.468,1.986 27.802,17.624 30.781,23.83c2.978,6.206 5.709,34.008 4.964,38.724c-0.744,4.716 3.227,-7.695 3.227,-12.163c0,-4.468 -1.986,-24.079 -5.213,-29.788c-3.227,-5.709 -21.595,-20.106 -34.752,-23.085" style="fill:#7e5942;"/><path d="M897.693,419.134c0,0 -5.015,51.659 -14.329,58.834c-9.314,7.175 -46.569,11.48 -56.6,1.435c-10.03,-10.045 12.18,-15.785 22.21,-17.22c10.031,-1.435 25.793,-11.48 30.092,-21.524c4.298,-10.045 16.478,-27.983 18.627,-21.525Z" style="fill:#331b23;"/><path d="M883.402,503.916c0,0 1.621,-34.036 4.322,-27.013c2.701,7.024 1.621,43.22 10.265,55.105c8.644,11.886 21.609,19.989 32.414,19.989c10.805,0 13.911,11.345 5.807,15.127c-8.104,3.782 -34.44,1.621 -44.704,-11.885c-10.265,-21.61 -8.104,-51.323 -8.104,-51.323" style="fill:#331b23;"/></g><g><path d="M177.145,463.437c0,0 7.371,-31.939 0.615,-49.751c-6.757,-17.812 -27.64,-22.726 -50.365,-19.041c-22.726,3.686 -42.454,12.43 -41.767,32.553c0.464,13.588 6.143,84.761 7.985,94.588c1.843,9.828 15.97,11.67 15.97,11.67c0,0 -13.513,-2.457 -15.97,8.599c-2.457,11.056 -14.741,23.954 -2.457,33.782c12.285,9.827 56.507,9.827 60.807,0.614c4.299,-9.213 5.528,-12.284 5.528,-12.284c0,0 1.228,25.182 6.756,35.009c5.528,9.828 30.096,17.198 40.538,16.584c10.441,-0.614 14.741,-17.198 21.497,-33.167c6.756,-15.97 14.741,-53.436 14.741,-64.492c0,-11.056 -1.228,-28.868 -9.213,-36.852c-7.985,-7.985 -22.726,-20.269 -54.665,-17.812Z" style="fill:#382129;"/><path d="M89.298,418.402c0,0 19.327,-16.643 38.982,-20.083c19.654,-3.439 36.209,4.98 40.771,9.765c5.423,5.688 -32.317,52.392 -52.224,53.294c-11.397,0.462 -29.627,-31.702 -27.529,-42.976Z" style="fill:#4d2c28;"/><path d="M196.743,468.26c-12.036,-2.214 -18.426,6.756 -14.741,22.726c3.685,15.969 15.355,36.238 16.584,52.207c1.228,15.97 12.898,35.01 20.268,25.797c7.371,-9.213 14.741,-25.797 16.584,-35.01c1.843,-9.213 16.191,-55.622 -38.695,-65.72Z" style="fill:#4d2c28;"/><path d="M203.321,468.558c-3.613,-0.903 -3.161,0.452 0.903,2.258c4.064,1.806 25.286,16.03 27.995,21.674c2.71,5.644 5.193,30.931 4.516,35.22c-0.677,4.29 2.935,-6.998 2.935,-11.062c0,-4.064 -1.806,-21.9 -4.741,-27.093c-2.935,-5.193 -19.642,-18.287 -31.608,-20.997" style="fill:#7e5942;"/><path d="M174.213,476.475c0,0 -4.561,46.985 -13.032,53.511c-8.472,6.526 -42.357,10.441 -51.48,1.305c-9.123,-9.136 11.078,-14.356 20.201,-15.662c9.123,-1.305 23.459,-10.441 27.369,-19.577c3.91,-9.136 14.987,-25.45 16.942,-19.577Z" style="fill:#331b23;"/><path d="M161.215,553.586c0,0 1.474,-30.956 3.931,-24.568c2.457,6.388 1.474,39.309 9.336,50.119c7.862,10.81 19.654,18.181 29.482,18.181c9.827,0 12.652,10.318 5.281,13.758c-7.37,3.439 -31.324,1.474 -40.66,-10.81c-9.336,-19.655 -7.37,-46.68 -7.37,-46.68" style="fill:#331b23;"/></g><g><path d="M782.924,270.273c0,0 5.655,-24.506 0.472,-38.172c-5.184,-13.666 -21.207,-17.436 -38.643,-14.609c-17.436,2.828 -32.572,9.537 -32.045,24.977c0.356,10.425 4.712,65.033 6.126,72.573c1.414,7.54 12.253,8.953 12.253,8.953c0,0 -10.368,-1.885 -12.253,6.598c-1.885,8.483 -11.31,18.379 -1.885,25.919c9.425,7.54 43.355,7.54 46.654,0.471c3.299,-7.069 4.241,-9.425 4.241,-9.425c0,0 0.943,19.321 5.184,26.862c4.241,7.54 23.092,13.195 31.103,12.723c8.011,-0.471 11.31,-13.195 16.494,-25.447c5.183,-12.253 11.31,-40.999 11.31,-49.482c0,-8.482 -0.943,-22.149 -7.069,-28.275c-6.126,-6.126 -17.436,-15.551 -41.942,-13.666Z" style="fill:#382129;"/><path d="M715.523,235.72c0,0 14.829,-12.77 29.909,-15.409c15.08,-2.639 27.782,3.821 31.282,7.492c4.161,4.364 -24.796,40.198 -40.069,40.89c-8.744,0.354 -22.731,-24.324 -21.122,-32.973Z" style="fill:#4d2c28;"/><path d="M797.961,273.973c-9.235,-1.699 -14.138,5.184 -11.31,17.437c2.827,12.252 11.781,27.804 12.724,40.056c0.942,12.253 9.896,26.862 15.551,19.793c5.655,-7.069 11.31,-19.793 12.724,-26.862c1.413,-7.068 12.422,-42.676 -29.689,-50.424Z" style="fill:#4d2c28;"/><path d="M803.008,274.202c-2.772,-0.693 -2.426,0.347 0.692,1.733c3.119,1.385 19.402,12.298 21.48,16.629c2.079,4.331 3.984,23.732 3.465,27.023c-0.52,3.291 2.252,-5.37 2.252,-8.488c0,-3.118 -1.386,-16.803 -3.638,-20.787c-2.252,-3.984 -15.071,-14.031 -24.251,-16.11" style="fill:#7e5942;"/><path d="M780.675,280.276c0,0 -3.5,36.05 -10,41.057c-6.499,5.007 -32.498,8.011 -39.497,1.001c-7,-7.009 8.499,-11.015 15.499,-12.016c6.999,-1.002 17.999,-8.011 20.999,-15.021c2.999,-7.01 11.499,-19.527 12.999,-15.021Z" style="fill:#331b23;"/><path d="M770.702,339.44c0,0 1.131,-23.751 3.016,-18.85c1.885,4.901 1.131,30.16 7.163,38.454c6.032,8.294 15.08,13.949 22.62,13.949c7.54,0 9.707,7.917 4.052,10.556c-5.655,2.639 -24.033,1.131 -31.196,-8.294c-7.163,-15.08 -5.655,-35.815 -5.655,-35.815" style="fill:#331b23;"/></g><g><path d="M461.038,276.273c0,0 -5.655,-24.506 -0.471,-38.172c5.184,-13.666 21.206,-17.436 38.643,-14.609c17.436,2.828 32.572,9.537 32.045,24.977c-0.356,10.425 -4.713,65.033 -6.127,72.573c-1.413,7.54 -12.252,8.953 -12.252,8.953c0,0 10.367,-1.885 12.252,6.598c1.885,8.483 11.311,18.379 1.885,25.919c-9.425,7.54 -43.355,7.54 -46.654,0.471c-3.298,-7.069 -4.241,-9.425 -4.241,-9.425c0,0 -0.942,19.321 -5.184,26.862c-4.241,7.54 -23.091,13.195 -31.102,12.723c-8.012,-0.471 -11.31,-13.195 -16.494,-25.447c-5.184,-12.253 -11.31,-40.999 -11.31,-49.482c0,-8.482 0.942,-22.149 7.069,-28.275c6.126,-6.126 17.436,-15.551 41.941,-13.666Z" style="fill:#382129;"/><path d="M528.439,241.72c0,0 -14.829,-12.77 -29.909,-15.409c-15.08,-2.639 -27.781,3.821 -31.281,7.492c-4.161,4.364 24.795,40.198 40.068,40.89c8.745,0.354 22.732,-24.324 21.122,-32.973Z" style="fill:#4d2c28;"/><path d="M446.002,279.973c9.234,-1.699 14.137,5.184 11.31,17.437c-2.828,12.252 -11.782,27.804 -12.724,40.056c-0.943,12.253 -9.896,26.862 -15.551,19.793c-5.655,-7.069 -11.31,-19.793 -12.724,-26.862c-1.414,-7.068 -12.422,-42.676 29.689,-50.424Z" style="fill:#4d2c28;"/><path d="M440.955,280.202c2.772,-0.693 2.425,0.347 -0.693,1.733c-3.118,1.385 -19.401,12.298 -21.48,16.629c-2.078,4.331 -3.984,23.732 -3.464,27.023c0.52,3.291 -2.252,-5.37 -2.252,-8.488c0,-3.118 1.386,-16.803 3.638,-20.787c2.252,-3.984 15.07,-14.031 24.251,-16.11" style="fill:#7e5942;"/><path d="M463.288,286.276c0,0 3.5,36.05 9.999,41.057c6.5,5.007 32.498,8.011 39.498,1.001c6.999,-7.009 -8.5,-11.015 -15.499,-12.016c-7,-1.002 -17.999,-8.011 -20.999,-15.021c-3,-7.01 -11.499,-19.527 -12.999,-15.021Z" style="fill:#331b23;"/><path d="M473.261,345.44c0,0 -1.131,-23.751 -3.016,-18.85c-1.885,4.901 -1.131,30.16 -7.163,38.454c-6.032,8.294 -15.08,13.949 -22.62,13.949c-7.54,0 -9.708,7.917 -4.053,10.556c5.655,2.639 24.034,1.131 31.197,-8.294c7.163,-15.08 5.655,-35.815 5.655,-35.815" style="fill:#331b23;"/></g><g><path d="M883.705,218.939c0,0 -5.655,-24.505 -0.472,-38.171c5.184,-13.667 21.207,-17.437 38.643,-14.609c17.437,2.827 32.573,9.537 32.045,24.976c-0.356,10.426 -4.712,65.033 -6.126,72.573c-1.414,7.54 -12.252,8.954 -12.252,8.954c0,0 10.367,-1.885 12.252,6.598c1.885,8.482 11.31,18.379 1.885,25.919c-9.425,7.54 -43.355,7.54 -46.654,0.471c-3.299,-7.069 -4.241,-9.425 -4.241,-9.425c0,0 -0.943,19.321 -5.184,26.861c-4.241,7.54 -23.091,13.195 -31.103,12.724c-8.011,-0.471 -11.31,-13.195 -16.494,-25.448c-5.183,-12.252 -11.31,-40.999 -11.31,-49.481c0,-8.483 0.943,-22.149 7.069,-28.275c6.126,-6.127 17.437,-15.552 41.942,-13.667Z" style="fill:#382129;"/><path d="M951.106,184.387c0,0 -14.829,-12.77 -29.909,-15.409c-15.08,-2.639 -27.782,3.821 -31.282,7.492c-4.16,4.364 24.796,40.197 40.069,40.89c8.744,0.354 22.731,-24.324 21.122,-32.973Z" style="fill:#4d2c28;"/><path d="M868.668,222.64c9.235,-1.699 14.138,5.184 11.31,17.436c-2.827,12.253 -11.781,27.804 -12.723,40.057c-0.943,12.253 -9.897,26.861 -15.552,19.793c-5.655,-7.069 -11.31,-19.793 -12.724,-26.862c-1.413,-7.069 -12.422,-42.677 29.689,-50.424Z" style="fill:#4d2c28;"/><path d="M863.622,222.869c2.771,-0.693 2.425,0.346 -0.693,1.732c-3.118,1.386 -19.401,12.299 -21.48,16.63c-2.079,4.33 -3.984,23.731 -3.465,27.023c0.52,3.291 -2.251,-5.37 -2.251,-8.488c0,-3.118 1.385,-16.803 3.637,-20.787c2.252,-3.984 15.071,-14.031 24.252,-16.11" style="fill:#7e5942;"/><path d="M885.954,228.943c0,0 3.5,36.05 10,41.057c6.499,5.007 32.498,8.011 39.497,1.001c7,-7.01 -8.499,-11.015 -15.499,-12.017c-6.999,-1.001 -17.999,-8.011 -20.998,-15.02c-3,-7.01 -11.5,-19.527 -13,-15.021Z" style="fill:#331b23;"/><path d="M895.927,288.107c0,0 -1.131,-23.751 -3.016,-18.85c-1.885,4.901 -1.131,30.16 -7.163,38.454c-6.032,8.294 -15.08,13.949 -22.62,13.949c-7.54,0 -9.707,7.917 -4.052,10.556c5.655,2.639 24.033,1.131 31.196,-8.294c7.163,-15.08 5.655,-35.815 5.655,-35.815" style="fill:#331b23;"/></g><g><path d="M87.446,334.312c0,0 7.961,-17.37 12.303,-23.159c4.342,-5.79 23.882,-9.408 31.481,-6.152c7.599,3.257 10.856,5.428 13.751,11.218c2.895,5.789 0,39.804 -0.362,48.85c-0.362,9.047 -1.809,24.968 -6.152,32.929c-4.342,7.961 -18.092,30.758 -21.349,37.995c-3.257,7.237 -8.323,22.435 -14.474,20.264c-6.152,-2.171 -14.836,-6.875 -14.836,-6.875c0,0 1.447,38.356 -1.448,44.146c-2.895,5.79 -6.875,14.474 -14.112,15.922c-7.237,1.447 -24.606,2.533 -24.606,2.533c0,0 -23.883,-36.91 -24.968,-43.061c-1.086,-6.152 -2.895,-53.555 -1.448,-58.983c1.448,-5.427 18.455,-19.902 18.455,-19.902l-6.514,-6.513c0,0 -2.894,-48.489 -2.171,-55.002c0.724,-6.514 26.416,-20.988 26.416,-20.988c6.896,-0.317 13.876,2.367 20.987,9.77l9.047,17.008Z" style="fill:#382129;"/><path d="M80.564,414.935c0,0 7.832,25.909 7.832,31.331c4.218,2.109 11.75,7.231 12.955,3.013c1.205,-4.218 1.506,-34.043 1.506,-40.069c0,-6.025 -2.109,-6.326 -6.326,-2.711c-4.218,3.615 -15.967,8.436 -15.967,8.436Z" style="fill:#331b23;"/><path d="M74.457,341.471c2.41,-2.892 7.712,-4.579 7.23,-0.723c-0.482,3.856 -12.05,22.896 -15.184,27.957c-3.133,5.062 -7.471,14.702 -11.568,16.389c-4.098,1.687 -10.846,4.339 -13.015,2.893c-2.169,-1.447 -5.061,-13.015 -5.061,-13.015c0,0 6.266,-0.482 11.327,-1.928c5.062,-1.446 10.605,-11.087 13.497,-13.738c2.892,-2.651 10.364,-14.943 12.774,-17.835Z" style="fill:#331b23;"/><path d="M102.282,313.324c0,0 8.323,-7.237 18.455,-6.513c10.131,0.723 20.625,6.513 21.349,12.664c0.724,6.152 0.724,26.416 -1.809,35.824c-2.533,9.408 -23.521,28.949 -32.567,35.1c-9.047,6.152 -25.692,24.244 -31.12,20.988c-5.428,-3.257 -14.836,-15.198 -11.941,-23.883c2.895,-8.684 12.665,-30.396 17.007,-35.462c4.342,-5.066 14.836,-31.119 20.626,-38.718Z" style="fill:#4d2c28;"/><path d="M78.038,321.285c0,0 -13.027,-12.665 -19.541,-9.409c-6.513,3.257 -24.606,17.731 -24.606,17.731c0,0 0.362,23.883 2.533,29.673c2.171,5.789 11.941,15.559 16.284,7.237c4.342,-8.323 21.349,-29.311 21.349,-29.311c0,0 4.342,-9.408 3.981,-15.921Z" style="fill:#4d2c28;"/><path d="M27.016,406.321c0,0 17.007,-13.389 23.159,-13.389c6.151,0 15.198,10.494 17.007,17.007c1.809,6.514 0,15.922 0,23.883c0,7.961 -5.79,33.291 -16.645,40.166c-10.856,6.875 -21.35,6.513 -24.245,-4.342c-2.171,-16.646 -3.257,-52.831 -3.257,-52.831c0,0 -2.171,-5.066 3.981,-10.494Z" style="fill:#4d2c28;"/><path d="M38.518,397.777c3.897,-2.599 7.145,-1.516 3.031,1.515c-4.114,3.032 -11.259,8.445 -12.559,12.776c-1.299,4.33 -2.381,36.81 -2.381,41.14c0,4.331 -1.083,-2.165 -2.166,-11.476c-1.082,-9.311 -3.681,-26.85 -1.515,-30.314c2.165,-3.465 11.692,-11.043 15.59,-13.641Z" style="fill:#7e5942;"/></g><defs><radialGradient id="_Radial1" cx="0" cy="0" r="1" gradientUnits="userSpaceOnUse" gradientTransform="matrix(514.725,0,0,514.725,510.492,361.821)"><stop offset="0" style="stop-color:#482825;stop-opacity:1"/><stop offset="1" style="stop-color:#382231;stop-opacity:1"/></radialGradient></defs></svg>